<?xml version="1.0" encoding="UTF-8"?>
<svg width="11px" height="16px" viewBox="0 0 11 16" version="1.1" xmlns="http://www.w3.org/2000/svg" xmlns:xlink="http://www.w3.org/1999/xlink">
    <!-- Generator: sketchtool 57.1 (101010) - https://sketch.com -->
    <title>8DFA81E9-B683-420F-B54B-01BDB66495EB</title>
    <desc>Created with sketchtool.</desc>
    <g id="Home" stroke="none" stroke-width="1" fill="none" fill-rule="evenodd" stroke-linecap="round" stroke-linejoin="round">
        <g id="home/notification-see-all" transform="translate(-499.000000, -767.000000)" stroke="#90A4AE">
            <g id="mic" transform="translate(500.000000, 768.000000)">
                <path d="M4.5,0 C3.43487941,0 2.57142857,0.86345084 2.57142857,1.92857143 L2.57142857,7.07142857 C2.57142857,8.13654916 3.43487941,9 4.5,9 C5.56512059,9 6.42857143,8.13654916 6.42857143,7.07142857 L6.42857143,1.92857143 C6.42857143,0.86345084 5.56512059,0 4.5,0 Z" id="Shape"></path>
                <path d="M9,5.78571429 L9,7.07142857 C9,9.55670992 6.98528135,11.5714285 4.5,11.5714285 C2.01471865,11.5714285 -1.77635684e-15,9.55670992 -1.77635684e-15,7.07142857 L-1.77635684e-15,5.78571429" id="Shape"></path>
                <path d="M4.5,11.5714286 L4.5,14.1428571" id="Shape"></path>
                <path d="M1.92857143,14.1428571 L7.07142857,14.1428571" id="Shape"></path>
            </g>
        </g>
    </g>
</svg>